<svg xmlns="http://www.w3.org/2000/svg" viewBox="0 0 100 100">
  <defs>
    <radialGradient id="eggEvBagelGrad" cx="40%" cy="35%" r="60%">
      <stop offset="0%" stop-color="#FCE8A0"/>
      <stop offset="50%" stop-color="#F0D068"/>
      <stop offset="100%" stop-color="#D4B050"/>
    </radialGradient>
    <radialGradient id="eggEvHoleGrad" cx="50%" cy="50%" r="50%">
      <stop offset="0%" stop-color="#FFFEF8"/>
      <stop offset="100%" stop-color="#FFF8E8"/>
    </radialGradient>
  </defs>
  <!-- Outer crust shadow -->
  <ellipse cx="52" cy="53" rx="44" ry="42" fill="#B89840"/>
  <!-- Main bagel body -->
  <path d="M50 6 C75 6, 94 25, 94 50 C94 75, 75 94, 50 94 C25 94, 6 75, 6 50 C6 25, 25 6, 50 6" fill="url(#eggEvBagelGrad)"/>
  <!-- Top highlight -->
  <ellipse cx="38" cy="32" rx="18" ry="12" fill="#FFF4C8" opacity="0.5"/>
  <!-- Poppy seeds (black) -->
  <circle cx="28" cy="38" r="2.2" fill="#1A1A1A"/>
  <circle cx="42" cy="24" r="2" fill="#1A1A1A"/>
  <circle cx="68" cy="32" r="2.2" fill="#1A1A1A"/>
  <circle cx="76" cy="52" r="2" fill="#1A1A1A"/>
  <circle cx="70" cy="72" r="2.2" fill="#1A1A1A"/>
  <circle cx="45" cy="78" r="2" fill="#1A1A1A"/>
  <circle cx="25" cy="62" r="2.2" fill="#1A1A1A"/>
  <circle cx="55" cy="28" r="1.8" fill="#1A1A1A"/>
  <!-- Sesame seeds (tan/cream) -->
  <ellipse cx="35" cy="28" rx="4" ry="2" fill="#F5E6C8" transform="rotate(25 35 28)"/>
  <ellipse cx="60" cy="22" rx="3.5" ry="1.8" fill="#EED9B6" transform="rotate(-15 60 22)"/>
  <ellipse cx="80" cy="45" rx="4" ry="2" fill="#F5E6C8" transform="rotate(40 80 45)"/>
  <ellipse cx="75" cy="62" rx="3.5" ry="1.8" fill="#EED9B6" transform="rotate(-30 75 62)"/>
  <ellipse cx="58" cy="80" rx="4" ry="2" fill="#F5E6C8" transform="rotate(10 58 80)"/>
  <ellipse cx="22" cy="48" rx="3.5" ry="1.8" fill="#EED9B6" transform="rotate(-45 22 48)"/>
  <!-- Dried onion flakes -->
  <rect x="48" y="18" width="5" height="3" fill="#E8DCC8" rx="1" transform="rotate(20 50 19)"/>
  <rect x="78" cy="38" width="4" height="2.5" fill="#DDD0B8" rx="1" transform="rotate(-35 80 39)"/>
  <rect x="32" cy="75" width="5" height="3" fill="#E8DCC8" rx="1" transform="rotate(15 34 76)"/>
  <!-- Dried garlic bits -->
  <circle cx="52" cy="32" r="2" fill="#FFFEF0" opacity="0.9"/>
  <circle cx="28" cy="72" r="1.8" fill="#FFFEF0" opacity="0.9"/>
  <!-- Center hole with shadow -->
  <ellipse cx="51" cy="52" rx="16" ry="15" fill="#A88830"/>
  <ellipse cx="50" cy="50" rx="15" ry="14" fill="url(#eggEvHoleGrad)"/>
  <!-- Inner crust ring -->
  <ellipse cx="50" cy="50" rx="18" ry="17" fill="none" stroke="#D4B050" stroke-width="2" opacity="0.5"/>
</svg>
