<svg xmlns="http://www.w3.org/2000/svg" viewBox="0 0 100 100">
  <defs>
    <radialGradient id="poppyBagelGrad" cx="40%" cy="35%" r="60%">
      <stop offset="0%" stop-color="#6B5A4A"/>
      <stop offset="50%" stop-color="#5A4A3A"/>
      <stop offset="100%" stop-color="#4A3A2A"/>
    </radialGradient>
    <radialGradient id="poppyHoleGrad" cx="50%" cy="50%" r="50%">
      <stop offset="0%" stop-color="#FEFEFE"/>
      <stop offset="100%" stop-color="#F0E8DC"/>
    </radialGradient>
  </defs>
  <!-- Outer crust shadow -->
  <ellipse cx="52" cy="53" rx="44" ry="42" fill="#3A2A1A"/>
  <!-- Main bagel body -->
  <path d="M50 6 C75 6, 94 25, 94 50 C94 75, 75 94, 50 94 C25 94, 6 75, 6 50 C6 25, 25 6, 50 6" fill="url(#poppyBagelGrad)"/>
  <!-- Top highlight -->
  <ellipse cx="38" cy="32" rx="18" ry="12" fill="#7A6A5A" opacity="0.5"/>
  <!-- Poppy seeds (dark blue-black dots) scattered densely -->
  <circle cx="28" cy="32" r="2" fill="#1A1A2E"/>
  <circle cx="38" cy="24" r="2" fill="#1A1A2E"/>
  <circle cx="50" cy="20" r="2" fill="#1A1A2E"/>
  <circle cx="62" cy="24" r="2" fill="#1A1A2E"/>
  <circle cx="72" cy="32" r="2" fill="#1A1A2E"/>
  <circle cx="80" cy="44" r="2" fill="#1A1A2E"/>
  <circle cx="82" cy="56" r="2" fill="#1A1A2E"/>
  <circle cx="78" cy="68" r="2" fill="#1A1A2E"/>
  <circle cx="68" cy="78" r="2" fill="#1A1A2E"/>
  <circle cx="54" cy="82" r="2" fill="#1A1A2E"/>
  <circle cx="40" cy="80" r="2" fill="#1A1A2E"/>
  <circle cx="28" cy="72" r="2" fill="#1A1A2E"/>
  <circle cx="20" cy="60" r="2" fill="#1A1A2E"/>
  <circle cx="18" cy="46" r="2" fill="#1A1A2E"/>
  <!-- Inner ring of seeds -->
  <circle cx="34" cy="38" r="1.8" fill="#1A1A2E"/>
  <circle cx="44" cy="30" r="1.8" fill="#1A1A2E"/>
  <circle cx="58" cy="30" r="1.8" fill="#1A1A2E"/>
  <circle cx="70" cy="40" r="1.8" fill="#1A1A2E"/>
  <circle cx="74" cy="54" r="1.8" fill="#1A1A2E"/>
  <circle cx="70" cy="68" r="1.8" fill="#1A1A2E"/>
  <circle cx="58" cy="76" r="1.8" fill="#1A1A2E"/>
  <circle cx="44" cy="76" r="1.8" fill="#1A1A2E"/>
  <circle cx="32" cy="68" r="1.8" fill="#1A1A2E"/>
  <circle cx="26" cy="54" r="1.8" fill="#1A1A2E"/>
  <!-- Additional scattered seeds -->
  <circle cx="48" cy="26" r="1.5" fill="#1A1A2E"/>
  <circle cx="76" cy="48" r="1.5" fill="#1A1A2E"/>
  <circle cx="64" cy="74" r="1.5" fill="#1A1A2E"/>
  <circle cx="36" cy="76" r="1.5" fill="#1A1A2E"/>
  <circle cx="22" cy="52" r="1.5" fill="#1A1A2E"/>
  <!-- Center hole with shadow -->
  <ellipse cx="51" cy="52" rx="16" ry="15" fill="#2A1A0A"/>
  <ellipse cx="50" cy="50" rx="15" ry="14" fill="url(#poppyHoleGrad)"/>
  <!-- Inner crust ring -->
  <ellipse cx="50" cy="50" rx="18" ry="17" fill="none" stroke="#5A4A3A" stroke-width="2" opacity="0.6"/>
</svg>
