<svg xmlns="http://www.w3.org/2000/svg" viewBox="0 0 100 100">
  <defs>
    <radialGradient id="pumpBagelGrad" cx="40%" cy="35%" r="60%">
      <stop offset="0%" stop-color="#5A4230"/>
      <stop offset="50%" stop-color="#4A3220"/>
      <stop offset="100%" stop-color="#3D2817"/>
    </radialGradient>
    <radialGradient id="pumpHoleGrad" cx="50%" cy="50%" r="50%">
      <stop offset="0%" stop-color="#FEFEFE"/>
      <stop offset="100%" stop-color="#F0E8DC"/>
    </radialGradient>
  </defs>
  <!-- Outer crust shadow -->
  <ellipse cx="52" cy="53" rx="44" ry="42" fill="#2A1A0A"/>
  <!-- Main bagel body -->
  <path d="M50 6 C75 6, 94 25, 94 50 C94 75, 75 94, 50 94 C25 94, 6 75, 6 50 C6 25, 25 6, 50 6" fill="url(#pumpBagelGrad)"/>
  <!-- Top highlight -->
  <ellipse cx="38" cy="32" rx="18" ry="12" fill="#6A5240" opacity="0.5"/>
  <!-- Subtle grain texture -->
  <circle cx="28" cy="38" r="1.5" fill="#5A4230" opacity="0.7"/>
  <circle cx="42" cy="26" r="1.2" fill="#5A4230" opacity="0.6"/>
  <circle cx="60" cy="28" r="1.5" fill="#5A4230" opacity="0.7"/>
  <circle cx="75" cy="42" r="1.2" fill="#5A4230" opacity="0.6"/>
  <circle cx="78" cy="58" r="1.5" fill="#5A4230" opacity="0.7"/>
  <circle cx="70" cy="72" r="1.2" fill="#5A4230" opacity="0.6"/>
  <circle cx="52" cy="80" r="1.5" fill="#5A4230" opacity="0.7"/>
  <circle cx="35" cy="76" r="1.2" fill="#5A4230" opacity="0.6"/>
  <circle cx="22" cy="62" r="1.5" fill="#5A4230" opacity="0.7"/>
  <circle cx="20" cy="48" r="1.2" fill="#5A4230" opacity="0.6"/>
  <!-- Additional texture specks -->
  <circle cx="48" cy="32" r="1" fill="#6A5240" opacity="0.5"/>
  <circle cx="68" cy="52" r="1" fill="#6A5240" opacity="0.5"/>
  <circle cx="45" cy="72" r="1" fill="#6A5240" opacity="0.5"/>
  <circle cx="28" cy="52" r="1" fill="#6A5240" opacity="0.5"/>
  <!-- Center hole with shadow -->
  <ellipse cx="51" cy="52" rx="16" ry="15" fill="#1A0A00"/>
  <ellipse cx="50" cy="50" rx="15" ry="14" fill="url(#pumpHoleGrad)"/>
  <!-- Inner crust ring -->
  <ellipse cx="50" cy="50" rx="18" ry="17" fill="none" stroke="#4A3220" stroke-width="2" opacity="0.6"/>
</svg>
