<svg xmlns="http://www.w3.org/2000/svg" viewBox="0 0 100 100">
  <defs>
    <radialGradient id="sesBagelGrad" cx="40%" cy="35%" r="60%">
      <stop offset="0%" stop-color="#F5D4A8"/>
      <stop offset="50%" stop-color="#E8B87A"/>
      <stop offset="100%" stop-color="#C99A5C"/>
    </radialGradient>
    <radialGradient id="sesHoleGrad" cx="50%" cy="50%" r="50%">
      <stop offset="0%" stop-color="#FEFEFE"/>
      <stop offset="100%" stop-color="#F0E8DC"/>
    </radialGradient>
  </defs>
  <!-- Outer crust shadow -->
  <ellipse cx="52" cy="53" rx="44" ry="42" fill="#B8864A"/>
  <!-- Main bagel body -->
  <path d="M50 6 C75 6, 94 25, 94 50 C94 75, 75 94, 50 94 C25 94, 6 75, 6 50 C6 25, 25 6, 50 6" fill="url(#sesBagelGrad)"/>
  <!-- Top highlight -->
  <ellipse cx="38" cy="32" rx="20" ry="14" fill="#FCEBD4" opacity="0.5"/>
  <!-- Sesame seeds scattered generously -->
  <ellipse cx="30" cy="28" rx="4" ry="2" fill="#F5E6C8" transform="rotate(35 30 28)"/>
  <ellipse cx="45" cy="20" rx="4.5" ry="2" fill="#EED9B6" transform="rotate(-10 45 20)"/>
  <ellipse cx="62" cy="22" rx="4" ry="2" fill="#F5E6C8" transform="rotate(20 62 22)"/>
  <ellipse cx="78" cy="35" rx="4.5" ry="2" fill="#EED9B6" transform="rotate(-25 78 35)"/>
  <ellipse cx="82" cy="52" rx="4" ry="2" fill="#F5E6C8" transform="rotate(45 82 52)"/>
  <ellipse cx="78" cy="68" rx="4.5" ry="2" fill="#EED9B6" transform="rotate(-35 78 68)"/>
  <ellipse cx="65" cy="80" rx="4" ry="2" fill="#F5E6C8" transform="rotate(15 65 80)"/>
  <ellipse cx="45" cy="82" rx="4.5" ry="2" fill="#EED9B6" transform="rotate(-20 45 82)"/>
  <ellipse cx="28" cy="75" rx="4" ry="2" fill="#F5E6C8" transform="rotate(40 28 75)"/>
  <ellipse cx="18" cy="58" rx="4.5" ry="2" fill="#EED9B6" transform="rotate(-45 18 58)"/>
  <ellipse cx="20" cy="40" rx="4" ry="2" fill="#F5E6C8" transform="rotate(30 20 40)"/>
  <ellipse cx="55" cy="32" rx="3.5" ry="1.8" fill="#EED9B6" transform="rotate(-5 55 32)"/>
  <ellipse cx="72" cy="48" rx="3.5" ry="1.8" fill="#F5E6C8" transform="rotate(50 72 48)"/>
  <ellipse cx="38" cy="72" rx="3.5" ry="1.8" fill="#EED9B6" transform="rotate(-30 38 72)"/>
  <ellipse cx="58" cy="75" rx="3.5" ry="1.8" fill="#F5E6C8" transform="rotate(25 58 75)"/>
  <ellipse cx="25" cy="55" rx="3.5" ry="1.8" fill="#EED9B6" transform="rotate(-15 25 55)"/>
  <!-- Center hole with shadow -->
  <ellipse cx="51" cy="52" rx="16" ry="15" fill="#A08060"/>
  <ellipse cx="50" cy="50" rx="15" ry="14" fill="url(#sesHoleGrad)"/>
  <!-- Inner crust ring -->
  <ellipse cx="50" cy="50" rx="18" ry="17" fill="none" stroke="#C99A5C" stroke-width="2" opacity="0.6"/>
</svg>
